<?xml version="1.0" standalone="no"?>
<!DOCTYPE svg PUBLIC "-//W3C//DTD SVG 20010904//EN"
 "http://www.w3.org/TR/2001/REC-SVG-20010904/DTD/svg10.dtd">
<svg version="1.0" xmlns="http://www.w3.org/2000/svg"
 width="700.000000pt" height="700.000000pt" viewBox="0 0 700.000000 700.000000"
 preserveAspectRatio="xMidYMid meet">
<metadata>
Created by potrace 1.11, written by Peter Selinger 2001-2013
</metadata>
<g transform="translate(0.000000,700.000000) scale(0.100000,-0.100000)"
fill="#000000" stroke="none">
<path d="M3300 6777 c-3 -3 -41 -7 -85 -10 -167 -11 -362 -44 -545 -93 -1005
-265 -1824 -987 -2213 -1949 -117 -290 -193 -601 -224 -920 -16 -157 -9 -555
11 -715 13 -98 19 -136 37 -225 36 -176 117 -457 159 -550 5 -11 26 -60 46
-110 40 -96 124 -262 181 -360 40 -67 164 -257 173 -265 3 -3 17 -21 30 -40
13 -19 27 -37 30 -40 3 -3 23 -27 44 -55 95 -120 319 -353 400 -416 16 -13 41
-34 55 -47 56 -52 261 -199 385 -276 110 -69 390 -216 410 -216 4 0 25 -8 49
-19 156 -69 427 -154 596 -186 27 -5 204 -34 246 -40 159 -23 600 -29 745 -10
70 9 253 35 286 41 83 14 334 82 447 121 564 194 1072 543 1454 1000 165 196
323 440 427 658 21 44 42 88 48 98 40 78 131 330 171 477 52 188 72 296 101
545 13 103 15 599 3 650 -2 11 -8 47 -11 80 -12 101 -38 252 -50 293 -3 9 -7
30 -10 45 -6 33 -49 186 -78 277 -94 296 -262 625 -451 890 -34 47 -66 90 -72
96 -5 6 -21 26 -35 44 -96 130 -400 433 -510 510 -19 13 -44 33 -55 43 -103
96 -496 327 -710 417 -108 45 -231 88 -400 140 -108 32 -356 82 -475 95 -36 4
-78 9 -95 11 -41 7 -509 16 -515 11z"/>
</g>
</svg>
